<svg xmlns="http://www.w3.org/2000/svg" xmlns:xlink="http://www.w3.org/1999/xlink" viewBox="0 0 77 75" fill="#fff" fill-rule="evenodd" stroke="#000" stroke-linecap="round" stroke-linejoin="round"><use xlink:href="#T" x=".5" y=".5"/><defs><linearGradient id="A" x1="-0.04%" y1="49.93%" x2="100.04%" y2="49.93%"><stop offset=".6%" stop-color="#373e3c"/><stop offset="100%" stop-color="#80868a"/></linearGradient><linearGradient id="B" x1="0.12%" y1="50.08%" x2="100.09%" y2="50.08%"><stop offset=".6%" stop-color="#373e3c"/><stop offset="100%" stop-color="#80868a"/></linearGradient><linearGradient id="C" x1="-0.06%" y1="50.03%" x2="100.01%" y2="50.03%"><stop offset="3.9%" stop-color="#d2cfcc"/><stop offset="11.2%" stop-color="#d2cfcc"/><stop offset="41%" stop-color="#f7f8f7"/></linearGradient><linearGradient id="D" x1="0.07%" y1="49.73%" x2="100.02%" y2="49.73%"><stop offset="3.9%" stop-color="#50514d"/><stop offset="30.9%" stop-color="#75766e"/><stop offset="83.9%" stop-color="#b8b5b1"/><stop offset="100%" stop-color="#d2cfcc"/></linearGradient><linearGradient id="E" x1="-0.05%" y1="49.76%" x2="100.01%" y2="49.76%"><stop offset="27%" stop-color="#3a3d3e"/><stop offset="100%" stop-color="#27252d"/></linearGradient><linearGradient id="F" x1="15.98%" y1="137.84%" x2="86.51%" y2="-44.52%"><stop offset="27%" stop-color="#232022"/><stop offset="71.8%" stop-color="#444345"/><stop offset="100%" stop-color="#5a5c5d"/></linearGradient><linearGradient id="G" x1="0.02%" y1="49.71%" x2="99.95%" y2="49.71%"><stop offset="27%" stop-color="#3a3d3e"/><stop offset="100%" stop-color="#27252d"/></linearGradient><radialGradient id="H" cx="50%" cy="50%" r="51%" fx="50%" fy="50%"><stop offset="7.3%" stop-color="#7b7c81"/><stop offset="100%" stop-color="#99877c"/></radialGradient><linearGradient id="I" x1="32.35%" y1="93.29%" x2="58.96%" y2="9.79%"><stop offset=".6%" stop-color="#2e3535"/><stop offset="3.9%" stop-color="#363b3b"/><stop offset="16.3%" stop-color="#50504e"/><stop offset="29.6%" stop-color="#69635d"/><stop offset="43.6%" stop-color="#7d726a"/><stop offset="58.9%" stop-color="#8c7e74"/><stop offset="76.2%" stop-color="#96857a"/><stop offset="100%" stop-color="#99877c"/></linearGradient><linearGradient id="J" x1="-1.75%" y1="96.79%" x2="97.00%" y2="14.65%"><stop offset="3.9%" stop-color="#2c2b23"/><stop offset="100%" stop-color="#646561"/></linearGradient><linearGradient id="K" x1="-0.80%" y1="49.98%" x2="99.60%" y2="49.98%"><stop offset=".6%" stop-color="#d2cfcc"/><stop offset="100%" stop-color="#f7f6f5"/></linearGradient><radialGradient id="L" cx="50%" cy="51%" r="51%" fx="50%" fy="51%"><stop offset="18.5%" stop-color="#241d29"/><stop offset="100%" stop-color="#272320"/></radialGradient><linearGradient id="M" x1="0.06%" y1="50.04%" x2="99.96%" y2="50.04%"><stop offset=".6%" stop-color="#6e6761"/><stop offset="100%" stop-color="#736d6a"/></linearGradient><linearGradient id="N" x1="0.59%" y1="49.90%" x2="100.47%" y2="49.90%"><stop offset="3.9%" stop-color="#cecac6"/><stop offset="100%" stop-color="#d5d4cd"/></linearGradient><linearGradient id="O" x1="0.14%" y1="50.02%" x2="99.72%" y2="50.02%"><stop offset="3.9%" stop-color="#cecac6"/><stop offset="100%" stop-color="#d5d4cd"/></linearGradient><linearGradient id="P" x1="-0.14%" y1="50.08%" x2="99.85%" y2="50.08%"><stop offset="3.9%" stop-color="#cecac6"/><stop offset="100%" stop-color="#d5d4cd"/></linearGradient><linearGradient id="Q" x1="-0.31%" y1="50.06%" x2="100.21%" y2="50.06%"><stop offset="3.9%" stop-color="#cecac6"/><stop offset="100%" stop-color="#d5d4cd"/></linearGradient><linearGradient id="R" x1="50.27%" y1="-0.17%" x2="50.27%" y2="100.31%"><stop offset="0%" stop-color="#565e65"/><stop offset="91.6%" stop-color="#181718"/></linearGradient><path id="S" d="M57.644 42.056c-.12-.285-.87-.255-1.11-.33-.285-.09-.645-.36-.78-.615-.105-.18-.06-.315-.18-.465-.075-.105-.33-.21-.435-.3l-2.595-.975c-1.08-.435-.435-.135-1.83-.675-1.41-.54-7.35-3.855-9.075-4.725s-3.24-1.38-4.965-1.695c-1.515-.285-2.73-.615-5.31-1.8-.63.465-1.02-.075-2.055.54-1.02.615-1.14 1.17-2.49 1.815s-2.025.825-3.405 1.41-2.79 1.44-3.465 1.77c-1.65 1.065-2.04 1.41-2.985 2.43s-.885 1.56-1.68 2.175c0 .285-.015.555-.015.81-.105 4.11 3.345 7.77 6.15 11.34s12.735 6.69 12.735 6.69l7.35-10.695.225-.105c.12-.09.48-.195.735-.24l.045-.18c.27-.075.465-.285.735-.345.36-.09.57-.03.9-.285.18-.15.315-.33.51-.465.3-.195.795-.27.645-.825.195.135.51.42.765.405.33-.03.495-.495.72-.69.315-.255.615-.135.975-.21.33-.06.765-.3 1.02-.51s.405-.48.72-.54c.39-.09.705-.045 1.08-.18.33-.12.705-.435.975-.645.405-.33.54-.36 1.08-.345.42 0 .675-.105 1.065-.24.255-.09.48-.195.69-.285.195-.105.39-.315.615-.405.75-.3 1.365.225 2.04-.03.285-.135.75-.27.6-.585h0z"/></defs><symbol id="T" overflow="visible"><g stroke="none" fill-rule="nonzero"><path d="M42.614 61.286s.36 4.74 0 5.73-.735 1.485-.975 2.16-.075 1.5-.21 1.95c-.15.435-5.175.15-5.295.54s1.38.6 1.965.75 1.35-.255 1.965 0 2.925-.165 3.42-.33.495-.615.495-.615.675.36 1.005.405.15-.21 0-.75c-.165-.54-.285-.33-.645-.87s.09-1.32.105-3.135.99-5.73.99-5.73l-2.82-.105h0z" fill="url(#A)"/><path d="M32.7 60.896s.12 3.435-.495 5.505c-.615 2.085-1.11 2.94-1.35 3.675s0 1.35-.24 1.71-2.565 0-3.435.495c-.855.495-1.59.615-.975.975s3.915-.36 4.53 0 2.58-.12 3.06-.12c.495 0 0-.735 0-.735s.735.24 1.095.12c.375-.12-.855-1.23-.975-1.965s.495-3.795.735-5.76l.495-4.29-2.445.39h0z" fill="url(#B)"/><path d="M66.509 57.086c-.09-.015.69-.045 1.11 0 .375.045.855.15 1.215.27.615.21 1.77.885 2.43.69.09-.225-.075-.435-.21-.57.435.12.915.435 1.305.45.405-2.76-2.385-3.915-4.23-5.25l-1.74-1.35c-.705-.45-1.485-.705-2.235-1.065l-3.51-1.77c-.675-.375-1.38-.555-2.07-.855-.36-.165-.615-.39-.99-.465l-3.555-.495-13.59 2.205-6.855 9.675s1.47 1.47 3.555 2.325 3.315 1.095 6 1.23c2.7.12 6.495-1.35 7.965-1.59s1.35 0 2.58-.12 3.18-2.085 5.64-2.325l7.185-.99h0z" fill="url(#C)"/><path d="M55.964 58.871c-.93.18-1.635.06-2.52-.135-.285-.06-.51-.195-.81-.15-.42.075-.645.135-1.065.09-.765-.075-1.38.315-2.055.15-.15-.045-.36-.15-.54-.18-.27-.06-.525.03-.825.12-.555.18-1.095.45-1.635.645-.225.075-.57.36-.81.12-.15-.15-.015-.33-.09-.48-.18-.36-.63-.06-.915 0-.405.09-.945.12-1.29-.165-.3-.24-.315-.585-.51-.9-.27-.435-.57-.195-.885-.075-.375.135-.33-.18-.66-.165-.195 0-.6.45-.735.585-.24.225-.495.45-.825.495-.75.12-1.05-.96-1.71-.63-.735.345-1.275 1.125-2.145 1.2-.84.075-1.59-.285-2.295-.72.36.33 1.68 1.5 3.45 2.235 2.085.855 3.315 1.095 6 1.23 2.7.12 6.495-1.35 7.965-1.59s1.35 0 2.58-.12c.78-.075 1.86-.9 3.165-1.545-.275-.072-.563-.077-.84-.015h0z" fill="url(#D)"/><path d="M55.244 47.786c.975.6 1.71 1.545 2.82 1.74 2.655.465 2.19 1.575 3.135 1.935.66-.825 2.01.39 2.52.855.96.885 1.86 1.47 3.015 2.04-.12-1.38-2.295-1.605-2.76-2.88.405-.075.84.375 1.17.57l1.35.735c.72.36 1.455.705 2.22.975-.06-.075-.06-.18-.15-.27.555.18 1.005.435 1.485.81.345.255 1.035.555 1.245.945-.015-.66-1.62-1.5-2.07-1.92-.735-.675-1.47-1.545-2.205-2.25-.81-.78-1.635-1.44-2.61-2.055-.75-.465-1.425-1.05-2.22-1.35-.09 0-.09 0 .015 0l-6.96.12h0z" fill="url(#E)"/><path d="M26.82 33.311c1.815-.9 2.925-1.635 4.545-2.835l-.69-.315c-3.57-1.725-5.985-4.725-8.04-8.715S20.04 10.331 20.04 10.331s-.435-3.78-1.62-5.715C17.235 2.651 14.43.701 12.915.266c-1.515-.42-3.135-.315-4.32.12s-3.675 2.82-5.07 3.615c-.81.45.105 2.55 1.29 2.55s3.12 1.32 4.425 1.8 2.25.795 3.24 1.875c1.005 1.08 2.205 5.865 2.67 8.175s.915 5.31.645 7.425c-.27 1.995-.375 10.395-.48 14.805 2.25-1.74 2.835-2.97 5.385-4.605 1.47-.765 4.65-2.235 6.12-2.715h0z" fill="url(#F)"/><path d="M41.159 50.607c-.03.045.63.405.855.465.51.135 1.035.105 1.56.18.99.12 1.665-.42 2.61-.63.495-.12.795-.36 1.35-.375.54-.015.99-.315 1.44-.405.345-.06.81.09 1.26.03.57-.06.945-.495 1.47-.615.225-.06.495.045.735.015.345-.045.525-.225.825-.375.525-.27 1.035-.24 1.62-.24 1.035 0 1.935-.375 2.94-.15 1.155.255 2.415.165 3.585.06l1.935-.27c.69-.045 1.32.165 1.98.255 1.785.225 3.645.495 5.34 1.095.675.24 1.32.405 1.965.765.18.09.435.33.63.33.285.015.555-.06.195-.375.39-.015 1.755.9 1.56.135-.075-.255-1.62-1.155-.675-1.245a.42.42 0 0 0 0-.33c-.42.03-.84-.435-1.215-.63l-1.56-.735c-.57-.225-1.185-.24-1.755-.48l-1.74-.765-3.555-1.545c-.735-.375-1.515-.945-2.37-1.005.69.15 1.335.42 2.01.57-.39-.42-1.335-.69-1.83-.915-.465-.225-1.14-.645-1.695-.63.09-.675-.465-.735-.975-.855.06-.45-.48-.75-.885-.84-.42-.09-.645.075-1.095.135-.51.06-.96-.075-1.44-.135-.525-.06-1.725 0-1.62 0l-12.735 5.76-2.445 2.205 1.725 1.545h0z" fill="url(#G)"/><use xlink:href="#S" fill="url(#H)"/><use xlink:href="#S" fill="url(#I)" opacity=".5"/><path d="M36.029 55.196l1.2-3.255 1.845-3.54c.105-.585.795-.48 1.23-.495.555 0 .795.15 1.185.51.405.375 1.47 2.655.285 2.7.42.75 1.35 1.725.75 2.7-.255.42-.81.705-1.095 1.095-.435.6-.63.615-1.26.825-1.125.39-1.8 1.065-2.79 1.635-.48.27-.975.15-1.5.36-.285.12-1.875.81-1.59-.15l1.74-2.385h0z" fill="url(#J)"/><path d="M14.58 12.386c-.045.105.63 1.56 1.725 1.395.465-.075.735-.375 1.11-.675.315-.27.885-.57 1.11-.93.21-.375.555-.81.48-1.26-.09-.615-.51-.465-1.065-.48l-1.89-.165c-.51-.09-1.62-.27-1.695-.06s1.215.36 1.74.57c.3.12.645.135.99.18.315.03 1.41-.24 1.305.06-.105.315-1.53 1.62-2.055 1.38-.255-.12-1.23-.99-1.485-1.2s-.405-.63-.585-.51c-.195.12 1.755 1.875 1.89 2.19s-.165.555-.57.375c-.435-.195-.96-.96-1.005-.87h0z" fill="url(#K)"/><path d="M9.165 2.906c.045-.105.12-.585.57-.69s.735-.075 1.02.06c.285.15.51.285.555.525s-.015.48-.36.675-.42.225-.78.195a1.4 1.4 0 0 1-.75-.285c-.165-.105-.285-.36-.255-.48z" fill="#5a5c5d"/><path d="M9.419 3.266c-.18-.18-.03-.675.525-.915s1.14.315 1.095.57c-.03.255-.33.465-.6.54s-.855 0-1.02-.195z" fill="url(#L)"/><path d="M36.87 53.906l-.81 1.965.69.975s-.975 5.88-1.35 5.88c-.36 0 0-1.47-1.11-1.47-1.095 0-.855.12-1.35.24s-.495-.855-.855-1.59.36-4.41.36-4.41l1.47-.375.615-1.71" fill="url(#M)"/><path d="M10.214 2.591c-.015.075-.09.12-.195.105-.09-.015-.165-.075-.15-.15s.09-.12.195-.105c.09 0 .165.075.15.15z" fill="#cbcaca"/><g fill="url(#N)"><path d="M37.964 45.941c-.015.075-.015.15.015.225l.195.045c.225.645.66 1.245.735 1.935a7.1 7.1 0 0 1-.24 2.58c-.225.75-.84 1.44-1.17 2.115-.165.33-.18.72-.3 1.08-.135.435-.45.555-.33 1.08.84.18 1.5-.645 1.845-1.29.18-.345.285-.645.42-1.02.075-.225.285-.51.285-.735 0-.21-.225-.3-.105-.585.525.195.135 1.44.09 1.815-.09.735-.255 1.245-.855 1.755-.525.45-1.05.735-1.44 1.35-.405.63-.675 1.11-1.29 1.53a5.71 5.71 0 0 1-.825.495c-.45.21-.495.3-.885.06-.81-.51-.375-1.215.12-1.77.585-.66 1.32-1.185 1.755-1.935.42-.735.03-1.44.345-2.19-.195-.075-.405-.045-.555.105.09-.585.63-.87.9-1.335.255-.435.525-.9.645-1.38.105-.435.18-.975.12-1.44-.045-.405-.27-.84.12-1.11l.405-1.38h0z"/><path d="M36.989 44.847c0 1.035-.105 2.055-.225 3.06-.12 1.08-.585 1.92-.915 2.94-.3.9-.345 1.83-.72 2.7-.225.525-.135.885-.225 1.47s-.525.6-.99.855c-.765.435-.81 1.395-1.005 2.205-.075.33-.315 1.005-.75.615-.375-.33-.135-1.5-.09-1.935.06-.48.105-.84.36-1.245.285-.465.69-.765.945-1.23.27-.48.075-.96.15-1.47.09-.585.66-.735.855-.03.21-.69.39-1.32.495-2.04.12-.795.015-1.635.135-2.43.345.105.21.66.375.945.54-.165.27-.78.33-1.215.075-.48.39-.885.495-1.35.105-.435.135-.855.12-1.35-.015-.42-.36-1.08-.225-1.455.36-.12.555.54.72.72l.165.24h0z"/></g><path d="M34.17 41.786c.405.495.855 1.065.87 1.74 0 .66-.375 1.2-.225 1.905.06.24.195.36.225.645.03.36-.105.585-.225.885-.195.495-.27 1.035-.39 1.56-.135.615-.165 1.23-.345 1.83-.21.69-.735 1.17-1.05 1.815-.255.54-.465 2.895-1.41 2.82-.12-.495-.09-.93-.03-1.455.075-.57.075-.93 0-1.47-.15-1.2.3-2.67.765-3.78.48-1.14.96-1.92.96-3.21 0-.555.315-.915.24-1.47-.06-.465-.165-.78.12-1.23l.495-.585h0zm0 4.035c-.015.96-.63 1.89-.855 2.82-.135.54-.405.93-.645 1.44-.135.27-.435.885-.12 1.17.525.465 1.02-1.77 1.11-2.115.15-.555.27-.915.555-1.44.24-.465.21-.84.21-1.38l-.255-.495h0z" fill="url(#O)"/><path d="M30.989 40.061c.69 0 1.365.045 1.845.585.495.57.315 1.29.21 1.995-.12.78-.585 1.38-.585 2.205v1.095c0 .375.135.9.105 1.23-.06.645-.57 1.335-.87 1.92-.33.645-.525 1.155-.6 1.86-.09.705-.045 1.485-.12 2.205-.045.435-.285 1.905-.69 2.07-.09-.6.09-1.23.09-1.845 0-.66.21-1.29.135-1.935-.075-.57-.255-1.17-.015-1.71.135-.315.285-.525.405-.855.105-.33.24-.66.375-.975.495-1.32.12-2.565.33-3.915.105-.675.42-1.17.495-1.845.06-.525.36-1.335-.36-1.59l-.75-.495h0z" fill="url(#P)"/><path d="M28.049 37.376c.3.225.63.66.96.75.09.555.36.75.765.96.45.24.69.405.975.855.42.675.9 2.01.345 2.7.315.39.495.645.36 1.2-.12.465-.36.84-.315 1.38.105 1.095.225 2.175-.24 3.21-.36.81-1.14 1.47-1.35 2.325-.12.465-.03 1.08-.03 1.56 0 .345-.015 1.155-.33 1.335-.93-1.575.405-3.255.195-4.875-.885-.36-.45 3.045-.99 3.375-.285-.435-.015-1.17.03-1.65l.12-1.62c.12-.885.375-1.68.51-2.565.12-.78.225-1.785.075-2.58-.135-.675-.915-1.8-.435-2.445.39.375.6.48.795 1.095s.21 1.335.285 1.95c.06.495.18 1.095.12 1.59-.045.405-.345 1.08-.225 1.455.645.27.465-.735.465-1.08 0-.585.15-1.065.21-1.62.12-1.095.015-2.235-.225-3.285-.12-.51-.24-.915-.615-1.32-.12-.135-.285-.225-.39-.36-.18-.255-.135-.33-.24-.615-.135-.375-.435-.72-.825-.885-.78-.33-.615.3-.225.705.345.345.885.72.96 1.245.09.63-.51.63-.63 1.11-.09.345.165.9.255 1.23.12.435.255 1.005.255 1.47-.015.915-.285 1.98-.39 2.94l-.225 1.605-.09.735c-.09.405-.045.69-.06 1.08 0 .48 0 1.8-.555 1.98-.51-.63-.09-2.235-.03-2.955.06-.645.285-1.575-.48-1.71-.15-1.035.195-1.725.45-2.67.27-1.02.39-2.1.39-3.18v-1.35c.015-.675-.225-.63-.585-1.14-.24-.36-.375-.63-.39-1.065-.045-.75.315-.51.735-.855l.615-.015h0z" fill="url(#O)"/><path d="M26.819 40.556c0 1.425-.075 2.805-.255 4.185l-.36 3.765c0 1.095.075 2.145-.255 3.18-.195.63-.495 2.205-1.23 2.4.06-.45.315-.84.39-1.275.06-.39 0-.855 0-1.245 0-.36.105-.81-.15-1.065-.435-.435-.555.195-.93.075-.09-.255.03-.39.105-.585.03-.09.15-.3.165-.375.03-.375 0-.12-.165-.375-.315-.48-.435-.525-.03-1.125.33-.495.615-.87.765-1.44.165-.585.45-1.125.63-1.71.165-.525.345-.915.345-1.47s-.075-1.17 0-1.71c.06-.435.315-.81.375-1.215.09-.555-.075-1.155.015-1.71.18.135.36.45.345.72l.24.975h0z" fill="url(#Q)"/><path d="M5.114 2.861c-.21.15-.36.345-.555.51-.165.12-.525.255-.585.495.135.015.39-.06.48.09.12.18.045.48-.03.615-.15.285-.24.465.135.69.315.195.48.345.825.3.39-.045.63-.165 1.035-.105-.135.18-.525.225-.63.435.075.12.405.24.435.39.03.18-.045.24-.495.36s-1.575-.375-2.46-.51L.554 5.876c-.225.105-.255.09-.45.15s-.12-.405.255-.915 1.14-.765 1.83-.945c.72-.18 2.925-1.305 2.925-1.305z" fill="url(#R)"/><path d="M3.435 4.271c-.24.075-.825.57-.75.87.18.03.285-.045.435-.06.165-.015.33.015.495-.015.06-.315.705-.405.57-.795-.09-.03-.18 0-.24.045l-.51-.045z" fill="#202324"/></g></symbol></svg>