<svg xmlns="http://www.w3.org/2000/svg" xmlns:xlink="http://www.w3.org/1999/xlink" viewBox="0 0 40 58" fill="#fff" fill-rule="evenodd" stroke="#000" stroke-linecap="round" stroke-linejoin="round"><use xlink:href="#A" x=".5" y=".5"/><symbol id="A" overflow="visible"><g stroke="#fff" stroke-linejoin="miter"><g fill="#000" stroke-width=".787"><path d="M38.576 43.693V0L27.948 10.628V56.29l10.628-12.596z"/><path d="M27.948 10.628H0v45.661h27.948V10.628z"/><path d="M27.948 10.628L38.576 0H13.777L0 10.628h27.948z"/></g><g stroke-linecap="square" fill="none" stroke-width=".394"><path d="M8.266 42.119v3.936h3.936"/><use xlink:href="#C"/><path d="M2.362 46.055h4.33m1.575-10.628v3.936h3.936"/><use xlink:href="#C" y="-6.692"/><path d="M2.362 39.363h4.33m1.575-11.809v3.936h3.936"/><use xlink:href="#C" y="-14.565"/><path d="M2.362 31.49h4.33m1.575-11.415v3.936h3.936"/><use xlink:href="#C" y="-22.044"/><path d="M2.362 24.012h4.33m1.575-11.809v3.936h3.936"/><use xlink:href="#C" y="-29.916"/><path d="M2.362 16.139h4.33m13.777 25.98v3.936h4.33"/><use xlink:href="#D"/><path d="M14.564 46.055h4.33m1.575-10.628v3.936h4.33"/><use xlink:href="#D" y="-6.692"/><path d="M14.564 39.363h4.33m1.575-11.809v3.936h4.33"/><use xlink:href="#D" y="-14.565"/><path d="M14.564 31.49h4.33m1.575-11.415v3.936h4.33"/><use xlink:href="#D" y="-22.044"/><path d="M14.564 24.012h4.33m1.575-11.809v3.936h4.33"/><use xlink:href="#D" y="-29.916"/><path d="M14.564 16.139h4.33"/></g></g></symbol><defs ><path id="C" d="M7.872 46.055h4.33m-9.447-3.936v3.936h3.936"/><path id="D" d="M20.075 46.055h4.724m-9.841-3.936v3.936h3.936"/></defs></svg>